/* XPM */
static char *viz_xpm[] = {
/* width height ncolors chars_per_pixel */
"32 12 2 1",
/* colors */
"  c Black",
". c White",
/* pixels */
"................................",
"................................",
"................   .....  ......",
"............... .. ...... ......",
".................. ...... ......",
".. ... ..    .... ...     ......",
"..  . .....  ...   .. ... ......",
"... . ..... ......    ... ......",
"... . .... ........   ... ......",
".... ....  .. .... .. ... ......",
".... ....    ..   ...     ......",
"................................"
};
